<?xml version="1.0" encoding="utf-8" standalone="no"?>
<!DOCTYPE svg PUBLIC "-//W3C//DTD SVG 1.1//EN"
  "http://www.w3.org/Graphics/SVG/1.1/DTD/svg11.dtd">
<svg xmlns:xlink="http://www.w3.org/1999/xlink" width="460.8pt" height="345.6pt" viewBox="0 0 460.8 345.6" xmlns="http://www.w3.org/2000/svg" version="1.1">
 <metadata>
  <rdf:RDF xmlns:dc="http://purl.org/dc/elements/1.1/" xmlns:cc="http://creativecommons.org/ns#" xmlns:rdf="http://www.w3.org/1999/02/22-rdf-syntax-ns#">
   <cc:Work>
    <dc:type rdf:resource="http://purl.org/dc/dcmitype/StillImage"/>
    <dc:date>2023-09-09T15:18:02.396923</dc:date>
    <dc:format>image/svg+xml</dc:format>
    <dc:creator>
     <cc:Agent>
      <dc:title>Matplotlib v3.7.2, https://matplotlib.org/</dc:title>
     </cc:Agent>
    </dc:creator>
   </cc:Work>
  </rdf:RDF>
 </metadata>
 <defs>
  <style type="text/css">*{stroke-linejoin: round; stroke-linecap: butt}</style>
 </defs>
 <g id="figure_1">
  <g id="patch_1">
   <path d="M 0 345.6 
L 460.8 345.6 
L 460.8 0 
L 0 0 
z
" style="fill: #ffffff"/>
  </g>
  <g id="axes_1">
   <g id="patch_2">
    <path d="M 57.6 307.584 
L 414.72 307.584 
L 414.72 41.472 
L 57.6 41.472 
z
" style="fill: #ffffff"/>
   </g>
   <g id="matplotlib.axis_1">
    <g id="xtick_1">
     <g id="line2d_1">
      <defs>
       <path id="m5a3b85b0a5" d="M 0 0 
L 0 3.5 
" style="stroke: #000000; stroke-width: 0.8"/>
      </defs>
      <g>
       <use xlink:href="#m5a3b85b0a5" x="73.832727" y="307.584" style="stroke: #000000; stroke-width: 0.8"/>
      </g>
     </g>
     <g id="text_1">
      <!-- 0 -->
      <g transform="translate(70.651477 322.182437) scale(0.1 -0.1)">
       <defs>
        <path id="DejaVuSans-30" d="M 2034 4250 
Q 1547 4250 1301 3770 
Q 1056 3291 1056 2328 
Q 1056 1369 1301 889 
Q 1547 409 2034 409 
Q 2525 409 2770 889 
Q 3016 1369 3016 2328 
Q 3016 3291 2770 3770 
Q 2525 4250 2034 4250 
z
M 2034 4750 
Q 2819 4750 3233 4129 
Q 3647 3509 3647 2328 
Q 3647 1150 3233 529 
Q 2819 -91 2034 -91 
Q 1250 -91 836 529 
Q 422 1150 422 2328 
Q 422 3509 836 4129 
Q 1250 4750 2034 4750 
z
" transform="scale(0.015625)"/>
       </defs>
       <use xlink:href="#DejaVuSans-30"/>
      </g>
     </g>
    </g>
    <g id="xtick_2">
     <g id="line2d_2">
      <g>
       <use xlink:href="#m5a3b85b0a5" x="125.503103" y="307.584" style="stroke: #000000; stroke-width: 0.8"/>
      </g>
     </g>
     <g id="text_2">
      <!-- 1 -->
      <g transform="translate(122.321853 322.182437) scale(0.1 -0.1)">
       <defs>
        <path id="DejaVuSans-31" d="M 794 531 
L 1825 531 
L 1825 4091 
L 703 3866 
L 703 4441 
L 1819 4666 
L 2450 4666 
L 2450 531 
L 3481 531 
L 3481 0 
L 794 0 
L 794 531 
z
" transform="scale(0.015625)"/>
       </defs>
       <use xlink:href="#DejaVuSans-31"/>
      </g>
     </g>
    </g>
    <g id="xtick_3">
     <g id="line2d_3">
      <g>
       <use xlink:href="#m5a3b85b0a5" x="177.173479" y="307.584" style="stroke: #000000; stroke-width: 0.8"/>
      </g>
     </g>
     <g id="text_3">
      <!-- 2 -->
      <g transform="translate(173.992229 322.182437) scale(0.1 -0.1)">
       <defs>
        <path id="DejaVuSans-32" d="M 1228 531 
L 3431 531 
L 3431 0 
L 469 0 
L 469 531 
Q 828 903 1448 1529 
Q 2069 2156 2228 2338 
Q 2531 2678 2651 2914 
Q 2772 3150 2772 3378 
Q 2772 3750 2511 3984 
Q 2250 4219 1831 4219 
Q 1534 4219 1204 4116 
Q 875 4013 500 3803 
L 500 4441 
Q 881 4594 1212 4672 
Q 1544 4750 1819 4750 
Q 2544 4750 2975 4387 
Q 3406 4025 3406 3419 
Q 3406 3131 3298 2873 
Q 3191 2616 2906 2266 
Q 2828 2175 2409 1742 
Q 1991 1309 1228 531 
z
" transform="scale(0.015625)"/>
       </defs>
       <use xlink:href="#DejaVuSans-32"/>
      </g>
     </g>
    </g>
    <g id="xtick_4">
     <g id="line2d_4">
      <g>
       <use xlink:href="#m5a3b85b0a5" x="228.843854" y="307.584" style="stroke: #000000; stroke-width: 0.8"/>
      </g>
     </g>
     <g id="text_4">
      <!-- 3 -->
      <g transform="translate(225.662604 322.182437) scale(0.1 -0.1)">
       <defs>
        <path id="DejaVuSans-33" d="M 2597 2516 
Q 3050 2419 3304 2112 
Q 3559 1806 3559 1356 
Q 3559 666 3084 287 
Q 2609 -91 1734 -91 
Q 1441 -91 1130 -33 
Q 819 25 488 141 
L 488 750 
Q 750 597 1062 519 
Q 1375 441 1716 441 
Q 2309 441 2620 675 
Q 2931 909 2931 1356 
Q 2931 1769 2642 2001 
Q 2353 2234 1838 2234 
L 1294 2234 
L 1294 2753 
L 1863 2753 
Q 2328 2753 2575 2939 
Q 2822 3125 2822 3475 
Q 2822 3834 2567 4026 
Q 2313 4219 1838 4219 
Q 1578 4219 1281 4162 
Q 984 4106 628 3988 
L 628 4550 
Q 988 4650 1302 4700 
Q 1616 4750 1894 4750 
Q 2613 4750 3031 4423 
Q 3450 4097 3450 3541 
Q 3450 3153 3228 2886 
Q 3006 2619 2597 2516 
z
" transform="scale(0.015625)"/>
       </defs>
       <use xlink:href="#DejaVuSans-33"/>
      </g>
     </g>
    </g>
    <g id="xtick_5">
     <g id="line2d_5">
      <g>
       <use xlink:href="#m5a3b85b0a5" x="280.51423" y="307.584" style="stroke: #000000; stroke-width: 0.8"/>
      </g>
     </g>
     <g id="text_5">
      <!-- 4 -->
      <g transform="translate(277.33298 322.182437) scale(0.1 -0.1)">
       <defs>
        <path id="DejaVuSans-34" d="M 2419 4116 
L 825 1625 
L 2419 1625 
L 2419 4116 
z
M 2253 4666 
L 3047 4666 
L 3047 1625 
L 3713 1625 
L 3713 1100 
L 3047 1100 
L 3047 0 
L 2419 0 
L 2419 1100 
L 313 1100 
L 313 1709 
L 2253 4666 
z
" transform="scale(0.015625)"/>
       </defs>
       <use xlink:href="#DejaVuSans-34"/>
      </g>
     </g>
    </g>
    <g id="xtick_6">
     <g id="line2d_6">
      <g>
       <use xlink:href="#m5a3b85b0a5" x="332.184606" y="307.584" style="stroke: #000000; stroke-width: 0.8"/>
      </g>
     </g>
     <g id="text_6">
      <!-- 5 -->
      <g transform="translate(329.003356 322.182437) scale(0.1 -0.1)">
       <defs>
        <path id="DejaVuSans-35" d="M 691 4666 
L 3169 4666 
L 3169 4134 
L 1269 4134 
L 1269 2991 
Q 1406 3038 1543 3061 
Q 1681 3084 1819 3084 
Q 2600 3084 3056 2656 
Q 3513 2228 3513 1497 
Q 3513 744 3044 326 
Q 2575 -91 1722 -91 
Q 1428 -91 1123 -41 
Q 819 9 494 109 
L 494 744 
Q 775 591 1075 516 
Q 1375 441 1709 441 
Q 2250 441 2565 725 
Q 2881 1009 2881 1497 
Q 2881 1984 2565 2268 
Q 2250 2553 1709 2553 
Q 1456 2553 1204 2497 
Q 953 2441 691 2322 
L 691 4666 
z
" transform="scale(0.015625)"/>
       </defs>
       <use xlink:href="#DejaVuSans-35"/>
      </g>
     </g>
    </g>
    <g id="xtick_7">
     <g id="line2d_7">
      <g>
       <use xlink:href="#m5a3b85b0a5" x="383.854982" y="307.584" style="stroke: #000000; stroke-width: 0.8"/>
      </g>
     </g>
     <g id="text_7">
      <!-- 6 -->
      <g transform="translate(380.673732 322.182437) scale(0.1 -0.1)">
       <defs>
        <path id="DejaVuSans-36" d="M 2113 2584 
Q 1688 2584 1439 2293 
Q 1191 2003 1191 1497 
Q 1191 994 1439 701 
Q 1688 409 2113 409 
Q 2538 409 2786 701 
Q 3034 994 3034 1497 
Q 3034 2003 2786 2293 
Q 2538 2584 2113 2584 
z
M 3366 4563 
L 3366 3988 
Q 3128 4100 2886 4159 
Q 2644 4219 2406 4219 
Q 1781 4219 1451 3797 
Q 1122 3375 1075 2522 
Q 1259 2794 1537 2939 
Q 1816 3084 2150 3084 
Q 2853 3084 3261 2657 
Q 3669 2231 3669 1497 
Q 3669 778 3244 343 
Q 2819 -91 2113 -91 
Q 1303 -91 875 529 
Q 447 1150 447 2328 
Q 447 3434 972 4092 
Q 1497 4750 2381 4750 
Q 2619 4750 2861 4703 
Q 3103 4656 3366 4563 
z
" transform="scale(0.015625)"/>
       </defs>
       <use xlink:href="#DejaVuSans-36"/>
      </g>
     </g>
    </g>
    <g id="text_8">
     <!-- x -->
     <g transform="translate(233.200625 335.860562) scale(0.1 -0.1)">
      <defs>
       <path id="DejaVuSans-78" d="M 3513 3500 
L 2247 1797 
L 3578 0 
L 2900 0 
L 1881 1375 
L 863 0 
L 184 0 
L 1544 1831 
L 300 3500 
L 978 3500 
L 1906 2253 
L 2834 3500 
L 3513 3500 
z
" transform="scale(0.015625)"/>
      </defs>
      <use xlink:href="#DejaVuSans-78"/>
     </g>
    </g>
   </g>
   <g id="matplotlib.axis_2">
    <g id="ytick_1">
     <g id="line2d_8">
      <defs>
       <path id="m74889604d1" d="M 0 0 
L -3.5 0 
" style="stroke: #000000; stroke-width: 0.8"/>
      </defs>
      <g>
       <use xlink:href="#m74889604d1" x="57.6" y="295.491806" style="stroke: #000000; stroke-width: 0.8"/>
      </g>
     </g>
     <g id="text_9">
      <!-- −1.00 -->
      <g transform="translate(19.954687 299.291025) scale(0.1 -0.1)">
       <defs>
        <path id="DejaVuSans-2212" d="M 678 2272 
L 4684 2272 
L 4684 1741 
L 678 1741 
L 678 2272 
z
" transform="scale(0.015625)"/>
        <path id="DejaVuSans-2e" d="M 684 794 
L 1344 794 
L 1344 0 
L 684 0 
L 684 794 
z
" transform="scale(0.015625)"/>
       </defs>
       <use xlink:href="#DejaVuSans-2212"/>
       <use xlink:href="#DejaVuSans-31" x="83.789062"/>
       <use xlink:href="#DejaVuSans-2e" x="147.412109"/>
       <use xlink:href="#DejaVuSans-30" x="179.199219"/>
       <use xlink:href="#DejaVuSans-30" x="242.822266"/>
      </g>
     </g>
    </g>
    <g id="ytick_2">
     <g id="line2d_9">
      <g>
       <use xlink:href="#m74889604d1" x="57.6" y="265.251331" style="stroke: #000000; stroke-width: 0.8"/>
      </g>
     </g>
     <g id="text_10">
      <!-- −0.75 -->
      <g transform="translate(19.954687 269.050549) scale(0.1 -0.1)">
       <defs>
        <path id="DejaVuSans-37" d="M 525 4666 
L 3525 4666 
L 3525 4397 
L 1831 0 
L 1172 0 
L 2766 4134 
L 525 4134 
L 525 4666 
z
" transform="scale(0.015625)"/>
       </defs>
       <use xlink:href="#DejaVuSans-2212"/>
       <use xlink:href="#DejaVuSans-30" x="83.789062"/>
       <use xlink:href="#DejaVuSans-2e" x="147.412109"/>
       <use xlink:href="#DejaVuSans-37" x="179.199219"/>
       <use xlink:href="#DejaVuSans-35" x="242.822266"/>
      </g>
     </g>
    </g>
    <g id="ytick_3">
     <g id="line2d_10">
      <g>
       <use xlink:href="#m74889604d1" x="57.6" y="235.010855" style="stroke: #000000; stroke-width: 0.8"/>
      </g>
     </g>
     <g id="text_11">
      <!-- −0.50 -->
      <g transform="translate(19.954687 238.810074) scale(0.1 -0.1)">
       <use xlink:href="#DejaVuSans-2212"/>
       <use xlink:href="#DejaVuSans-30" x="83.789062"/>
       <use xlink:href="#DejaVuSans-2e" x="147.412109"/>
       <use xlink:href="#DejaVuSans-35" x="179.199219"/>
       <use xlink:href="#DejaVuSans-30" x="242.822266"/>
      </g>
     </g>
    </g>
    <g id="ytick_4">
     <g id="line2d_11">
      <g>
       <use xlink:href="#m74889604d1" x="57.6" y="204.770379" style="stroke: #000000; stroke-width: 0.8"/>
      </g>
     </g>
     <g id="text_12">
      <!-- −0.25 -->
      <g transform="translate(19.954687 208.569598) scale(0.1 -0.1)">
       <use xlink:href="#DejaVuSans-2212"/>
       <use xlink:href="#DejaVuSans-30" x="83.789062"/>
       <use xlink:href="#DejaVuSans-2e" x="147.412109"/>
       <use xlink:href="#DejaVuSans-32" x="179.199219"/>
       <use xlink:href="#DejaVuSans-35" x="242.822266"/>
      </g>
     </g>
    </g>
    <g id="ytick_5">
     <g id="line2d_12">
      <g>
       <use xlink:href="#m74889604d1" x="57.6" y="174.529903" style="stroke: #000000; stroke-width: 0.8"/>
      </g>
     </g>
     <g id="text_13">
      <!-- 0.00 -->
      <g transform="translate(28.334375 178.329122) scale(0.1 -0.1)">
       <use xlink:href="#DejaVuSans-30"/>
       <use xlink:href="#DejaVuSans-2e" x="63.623047"/>
       <use xlink:href="#DejaVuSans-30" x="95.410156"/>
       <use xlink:href="#DejaVuSans-30" x="159.033203"/>
      </g>
     </g>
    </g>
    <g id="ytick_6">
     <g id="line2d_13">
      <g>
       <use xlink:href="#m74889604d1" x="57.6" y="144.289427" style="stroke: #000000; stroke-width: 0.8"/>
      </g>
     </g>
     <g id="text_14">
      <!-- 0.25 -->
      <g transform="translate(28.334375 148.088646) scale(0.1 -0.1)">
       <use xlink:href="#DejaVuSans-30"/>
       <use xlink:href="#DejaVuSans-2e" x="63.623047"/>
       <use xlink:href="#DejaVuSans-32" x="95.410156"/>
       <use xlink:href="#DejaVuSans-35" x="159.033203"/>
      </g>
     </g>
    </g>
    <g id="ytick_7">
     <g id="line2d_14">
      <g>
       <use xlink:href="#m74889604d1" x="57.6" y="114.048952" style="stroke: #000000; stroke-width: 0.8"/>
      </g>
     </g>
     <g id="text_15">
      <!-- 0.50 -->
      <g transform="translate(28.334375 117.84817) scale(0.1 -0.1)">
       <use xlink:href="#DejaVuSans-30"/>
       <use xlink:href="#DejaVuSans-2e" x="63.623047"/>
       <use xlink:href="#DejaVuSans-35" x="95.410156"/>
       <use xlink:href="#DejaVuSans-30" x="159.033203"/>
      </g>
     </g>
    </g>
    <g id="ytick_8">
     <g id="line2d_15">
      <g>
       <use xlink:href="#m74889604d1" x="57.6" y="83.808476" style="stroke: #000000; stroke-width: 0.8"/>
      </g>
     </g>
     <g id="text_16">
      <!-- 0.75 -->
      <g transform="translate(28.334375 87.607695) scale(0.1 -0.1)">
       <use xlink:href="#DejaVuSans-30"/>
       <use xlink:href="#DejaVuSans-2e" x="63.623047"/>
       <use xlink:href="#DejaVuSans-37" x="95.410156"/>
       <use xlink:href="#DejaVuSans-35" x="159.033203"/>
      </g>
     </g>
    </g>
    <g id="ytick_9">
     <g id="line2d_16">
      <g>
       <use xlink:href="#m74889604d1" x="57.6" y="53.568" style="stroke: #000000; stroke-width: 0.8"/>
      </g>
     </g>
     <g id="text_17">
      <!-- 1.00 -->
      <g transform="translate(28.334375 57.367219) scale(0.1 -0.1)">
       <use xlink:href="#DejaVuSans-31"/>
       <use xlink:href="#DejaVuSans-2e" x="63.623047"/>
       <use xlink:href="#DejaVuSans-30" x="95.410156"/>
       <use xlink:href="#DejaVuSans-30" x="159.033203"/>
      </g>
     </g>
    </g>
    <g id="text_18">
     <!-- Amplitude -->
     <g transform="translate(13.875 200.150656) rotate(-90) scale(0.1 -0.1)">
      <defs>
       <path id="DejaVuSans-41" d="M 2188 4044 
L 1331 1722 
L 3047 1722 
L 2188 4044 
z
M 1831 4666 
L 2547 4666 
L 4325 0 
L 3669 0 
L 3244 1197 
L 1141 1197 
L 716 0 
L 50 0 
L 1831 4666 
z
" transform="scale(0.015625)"/>
       <path id="DejaVuSans-6d" d="M 3328 2828 
Q 3544 3216 3844 3400 
Q 4144 3584 4550 3584 
Q 5097 3584 5394 3201 
Q 5691 2819 5691 2113 
L 5691 0 
L 5113 0 
L 5113 2094 
Q 5113 2597 4934 2840 
Q 4756 3084 4391 3084 
Q 3944 3084 3684 2787 
Q 3425 2491 3425 1978 
L 3425 0 
L 2847 0 
L 2847 2094 
Q 2847 2600 2669 2842 
Q 2491 3084 2119 3084 
Q 1678 3084 1418 2786 
Q 1159 2488 1159 1978 
L 1159 0 
L 581 0 
L 581 3500 
L 1159 3500 
L 1159 2956 
Q 1356 3278 1631 3431 
Q 1906 3584 2284 3584 
Q 2666 3584 2933 3390 
Q 3200 3197 3328 2828 
z
" transform="scale(0.015625)"/>
       <path id="DejaVuSans-70" d="M 1159 525 
L 1159 -1331 
L 581 -1331 
L 581 3500 
L 1159 3500 
L 1159 2969 
Q 1341 3281 1617 3432 
Q 1894 3584 2278 3584 
Q 2916 3584 3314 3078 
Q 3713 2572 3713 1747 
Q 3713 922 3314 415 
Q 2916 -91 2278 -91 
Q 1894 -91 1617 61 
Q 1341 213 1159 525 
z
M 3116 1747 
Q 3116 2381 2855 2742 
Q 2594 3103 2138 3103 
Q 1681 3103 1420 2742 
Q 1159 2381 1159 1747 
Q 1159 1113 1420 752 
Q 1681 391 2138 391 
Q 2594 391 2855 752 
Q 3116 1113 3116 1747 
z
" transform="scale(0.015625)"/>
       <path id="DejaVuSans-6c" d="M 603 4863 
L 1178 4863 
L 1178 0 
L 603 0 
L 603 4863 
z
" transform="scale(0.015625)"/>
       <path id="DejaVuSans-69" d="M 603 3500 
L 1178 3500 
L 1178 0 
L 603 0 
L 603 3500 
z
M 603 4863 
L 1178 4863 
L 1178 4134 
L 603 4134 
L 603 4863 
z
" transform="scale(0.015625)"/>
       <path id="DejaVuSans-74" d="M 1172 4494 
L 1172 3500 
L 2356 3500 
L 2356 3053 
L 1172 3053 
L 1172 1153 
Q 1172 725 1289 603 
Q 1406 481 1766 481 
L 2356 481 
L 2356 0 
L 1766 0 
Q 1100 0 847 248 
Q 594 497 594 1153 
L 594 3053 
L 172 3053 
L 172 3500 
L 594 3500 
L 594 4494 
L 1172 4494 
z
" transform="scale(0.015625)"/>
       <path id="DejaVuSans-75" d="M 544 1381 
L 544 3500 
L 1119 3500 
L 1119 1403 
Q 1119 906 1312 657 
Q 1506 409 1894 409 
Q 2359 409 2629 706 
Q 2900 1003 2900 1516 
L 2900 3500 
L 3475 3500 
L 3475 0 
L 2900 0 
L 2900 538 
Q 2691 219 2414 64 
Q 2138 -91 1772 -91 
Q 1169 -91 856 284 
Q 544 659 544 1381 
z
M 1991 3584 
L 1991 3584 
z
" transform="scale(0.015625)"/>
       <path id="DejaVuSans-64" d="M 2906 2969 
L 2906 4863 
L 3481 4863 
L 3481 0 
L 2906 0 
L 2906 525 
Q 2725 213 2448 61 
Q 2172 -91 1784 -91 
Q 1150 -91 751 415 
Q 353 922 353 1747 
Q 353 2572 751 3078 
Q 1150 3584 1784 3584 
Q 2172 3584 2448 3432 
Q 2725 3281 2906 2969 
z
M 947 1747 
Q 947 1113 1208 752 
Q 1469 391 1925 391 
Q 2381 391 2643 752 
Q 2906 1113 2906 1747 
Q 2906 2381 2643 2742 
Q 2381 3103 1925 3103 
Q 1469 3103 1208 2742 
Q 947 2381 947 1747 
z
" transform="scale(0.015625)"/>
       <path id="DejaVuSans-65" d="M 3597 1894 
L 3597 1613 
L 953 1613 
Q 991 1019 1311 708 
Q 1631 397 2203 397 
Q 2534 397 2845 478 
Q 3156 559 3463 722 
L 3463 178 
Q 3153 47 2828 -22 
Q 2503 -91 2169 -91 
Q 1331 -91 842 396 
Q 353 884 353 1716 
Q 353 2575 817 3079 
Q 1281 3584 2069 3584 
Q 2775 3584 3186 3129 
Q 3597 2675 3597 1894 
z
M 3022 2063 
Q 3016 2534 2758 2815 
Q 2500 3097 2075 3097 
Q 1594 3097 1305 2825 
Q 1016 2553 972 2059 
L 3022 2063 
z
" transform="scale(0.015625)"/>
      </defs>
      <use xlink:href="#DejaVuSans-41"/>
      <use xlink:href="#DejaVuSans-6d" x="68.408203"/>
      <use xlink:href="#DejaVuSans-70" x="165.820312"/>
      <use xlink:href="#DejaVuSans-6c" x="229.296875"/>
      <use xlink:href="#DejaVuSans-69" x="257.080078"/>
      <use xlink:href="#DejaVuSans-74" x="284.863281"/>
      <use xlink:href="#DejaVuSans-75" x="324.072266"/>
      <use xlink:href="#DejaVuSans-64" x="387.451172"/>
      <use xlink:href="#DejaVuSans-65" x="450.927734"/>
     </g>
    </g>
   </g>
   <g id="line2d_17">
    <path d="M 73.832727 174.529903 
L 77.112066 166.858025 
L 80.391405 159.217039 
L 83.670744 151.637713 
L 86.950083 144.150565 
L 90.229421 136.785744 
L 93.50876 129.572905 
L 96.788099 122.541093 
L 100.067438 115.718621 
L 103.346777 109.132961 
L 106.626116 102.810632 
L 109.905455 96.777091 
L 113.184793 91.056633 
L 116.464132 85.672292 
L 119.743471 80.64575 
L 123.02281 75.997246 
L 126.302149 71.745498 
L 129.581488 67.907627 
L 132.860826 64.499086 
L 136.140165 61.5336 
L 139.419504 59.023111 
L 142.698843 56.977726 
L 145.978182 55.405683 
L 149.257521 54.313311 
L 152.53686 53.705009 
L 155.816198 53.583226 
L 159.095537 53.948452 
L 162.374876 54.799218 
L 165.654215 56.132096 
L 168.933554 57.941721 
L 172.212893 60.220806 
L 175.492231 62.960172 
L 178.77157 66.148791 
L 182.050909 69.773822 
L 185.330248 73.820669 
L 188.609587 78.273036 
L 191.888926 83.112996 
L 195.168264 88.32106 
L 198.447603 93.876256 
L 201.726942 99.756216 
L 205.006281 105.937263 
L 208.28562 112.394508 
L 211.564959 119.101951 
L 214.844298 126.032583 
L 218.123636 133.158496 
L 221.402975 140.450997 
L 224.682314 147.880722 
L 227.961653 155.417754 
L 231.240992 163.031743 
L 234.520331 170.692032 
L 237.799669 178.367774 
L 241.079008 186.028063 
L 244.358347 193.642053 
L 247.637686 201.179085 
L 250.917025 208.60881 
L 254.196364 215.901311 
L 257.475702 223.027224 
L 260.755041 229.957855 
L 264.03438 236.665298 
L 267.313719 243.122544 
L 270.593058 249.303591 
L 273.872397 255.183551 
L 277.151736 260.738747 
L 280.431074 265.94681 
L 283.710413 270.78677 
L 286.989752 275.239137 
L 290.269091 279.285984 
L 293.54843 282.911015 
L 296.827769 286.099634 
L 300.107107 288.839001 
L 303.386446 291.118085 
L 306.665785 292.92771 
L 309.945124 294.260589 
L 313.224463 295.111354 
L 316.503802 295.476581 
L 319.78314 295.354798 
L 323.062479 294.746495 
L 326.341818 293.654123 
L 329.621157 292.08208 
L 332.900496 290.036696 
L 336.179835 287.526206 
L 339.459174 284.560721 
L 342.738512 281.15218 
L 346.017851 277.314308 
L 349.29719 273.062561 
L 352.576529 268.414057 
L 355.855868 263.387514 
L 359.135207 258.003174 
L 362.414545 252.282716 
L 365.693884 246.249175 
L 368.973223 239.926846 
L 372.252562 233.341186 
L 375.531901 226.518714 
L 378.81124 219.486901 
L 382.090579 212.274063 
L 385.369917 204.909242 
L 388.649256 197.422094 
L 391.928595 189.842767 
L 395.207934 182.201781 
L 398.487273 174.529903 
" clip-path="url(#pb95d69e6be)" style="fill: none; stroke: #540d6e; stroke-width: 1.5; stroke-linecap: square"/>
   </g>
   <g id="line2d_18">
    <path d="M 73.832727 53.568 
L 77.112066 53.811535 
L 80.391405 54.541161 
L 83.670744 55.753939 
L 86.950083 57.444986 
L 90.229421 59.607493 
L 93.50876 62.232751 
L 96.788099 65.310191 
L 100.067438 68.827419 
L 103.346777 72.770275 
L 106.626116 77.12288 
L 109.905455 81.867709 
L 113.184793 86.985657 
L 116.464132 92.456113 
L 119.743471 98.257053 
L 123.02281 104.365115 
L 126.302149 110.755707 
L 129.581488 117.403095 
L 132.860826 124.280513 
L 136.140165 131.360267 
L 139.419504 138.61385 
L 142.698843 146.012054 
L 145.978182 153.525089 
L 149.257521 161.122704 
L 152.53686 168.774304 
L 155.816198 176.44908 
L 159.095537 184.116129 
L 162.374876 191.744577 
L 165.654215 199.303708 
L 168.933554 206.763083 
L 172.212893 214.092667 
L 175.492231 221.262945 
L 178.77157 228.245046 
L 182.050909 235.010855 
L 185.330248 241.533128 
L 188.609587 247.785604 
L 191.888926 253.743104 
L 195.168264 259.381641 
L 198.447603 264.67851 
L 201.726942 269.612382 
L 205.006281 274.16339 
L 208.28562 278.31321 
L 211.564959 282.045131 
L 214.844298 285.344126 
L 218.123636 288.196911 
L 221.402975 290.591999 
L 224.682314 292.519747 
L 227.961653 293.972391 
L 231.240992 294.944082 
L 234.520331 295.430907 
L 237.799669 295.430907 
L 241.079008 294.944082 
L 244.358347 293.972391 
L 247.637686 292.519747 
L 250.917025 290.591999 
L 254.196364 288.196911 
L 257.475702 285.344126 
L 260.755041 282.045131 
L 264.03438 278.31321 
L 267.313719 274.16339 
L 270.593058 269.612382 
L 273.872397 264.67851 
L 277.151736 259.381641 
L 280.431074 253.743104 
L 283.710413 247.785604 
L 286.989752 241.533128 
L 290.269091 235.010855 
L 293.54843 228.245046 
L 296.827769 221.262945 
L 300.107107 214.092667 
L 303.386446 206.763083 
L 306.665785 199.303708 
L 309.945124 191.744577 
L 313.224463 184.116129 
L 316.503802 176.44908 
L 319.78314 168.774304 
L 323.062479 161.122704 
L 326.341818 153.525089 
L 329.621157 146.012054 
L 332.900496 138.61385 
L 336.179835 131.360267 
L 339.459174 124.280513 
L 342.738512 117.403095 
L 346.017851 110.755707 
L 349.29719 104.365115 
L 352.576529 98.257053 
L 355.855868 92.456113 
L 359.135207 86.985657 
L 362.414545 81.867709 
L 365.693884 77.12288 
L 368.973223 72.770275 
L 372.252562 68.827419 
L 375.531901 65.310191 
L 378.81124 62.232751 
L 382.090579 59.607493 
L 385.369917 57.444986 
L 388.649256 55.753939 
L 391.928595 54.541161 
L 395.207934 53.811535 
L 398.487273 53.568 
" clip-path="url(#pb95d69e6be)" style="fill: none; stroke: #e84855; stroke-width: 1.5; stroke-linecap: square"/>
   </g>
   <g id="line2d_19">
    <path d="M 73.832727 88.996921 
L 77.112066 83.74429 
L 80.391405 78.85722 
L 83.670744 74.35539 
L 86.950083 70.256928 
L 90.229421 66.578336 
L 93.50876 63.334427 
L 96.788099 60.538263 
L 100.067438 58.201103 
L 103.346777 56.332359 
L 106.626116 54.939554 
L 109.905455 54.028297 
L 113.184793 53.602257 
L 116.464132 53.66315 
L 119.743471 54.210732 
L 123.02281 55.242796 
L 126.302149 56.755187 
L 129.581488 58.741815 
L 132.860826 61.194681 
L 136.140165 64.103908 
L 139.419504 67.457782 
L 142.698843 71.242797 
L 145.978182 75.443713 
L 149.257521 80.043614 
L 152.53686 85.023978 
L 155.816198 90.364751 
L 159.095537 96.044427 
L 162.374876 102.040136 
L 165.654215 108.327736 
L 168.933554 114.881909 
L 172.212893 121.676263 
L 175.492231 128.683441 
L 178.77157 135.875225 
L 182.050909 143.222659 
L 185.330248 150.696156 
L 188.609587 158.265623 
L 191.888926 165.90058 
L 195.168264 173.570284 
L 198.447603 181.243853 
L 201.726942 188.890387 
L 205.006281 196.479096 
L 208.28562 203.979424 
L 211.564959 211.361169 
L 214.844298 218.594607 
L 218.123636 225.650613 
L 221.402975 232.500773 
L 224.682314 239.117505 
L 227.961653 245.474165 
L 231.240992 251.545158 
L 234.520331 257.306038 
L 237.799669 262.733608 
L 241.079008 267.806012 
L 244.358347 272.502827 
L 247.637686 276.805139 
L 250.917025 280.695624 
L 254.196364 284.158618 
L 257.475702 287.180176 
L 260.755041 289.748131 
L 264.03438 291.852142 
L 267.313719 293.483739 
L 270.593058 294.63635 
L 273.872397 295.305335 
L 277.151736 295.488 
L 280.431074 295.183609 
L 283.710413 294.393389 
L 286.989752 293.120521 
L 290.269091 291.37013 
L 293.54843 289.149264 
L 296.827769 286.466867 
L 300.107107 283.33374 
L 303.386446 279.762497 
L 306.665785 275.76752 
L 309.945124 271.364895 
L 313.224463 266.57235 
L 316.503802 261.409182 
L 319.78314 255.896182 
L 323.062479 250.055549 
L 326.341818 243.910801 
L 329.621157 237.48668 
L 332.900496 230.809054 
L 336.179835 223.904813 
L 339.459174 216.801756 
L 342.738512 209.528485 
L 346.017851 202.114287 
L 349.29719 194.589016 
L 352.576529 186.982975 
L 355.855868 179.326789 
L 359.135207 171.651288 
L 362.414545 163.987379 
L 365.693884 156.36592 
L 368.973223 148.817601 
L 372.252562 141.372817 
L 375.531901 134.061544 
L 378.81124 126.913224 
L 382.090579 119.956638 
L 385.369917 113.219801 
L 388.649256 106.729837 
L 391.928595 100.51288 
L 395.207934 94.593964 
L 398.487273 88.996921 
" clip-path="url(#pb95d69e6be)" style="fill: none; stroke: #ff9b71; stroke-width: 1.5; stroke-linecap: square"/>
   </g>
   <g id="line2d_20">
    <path d="M 73.832727 88.996921 
L 77.112066 94.593964 
L 80.391405 100.51288 
L 83.670744 106.729837 
L 86.950083 113.219801 
L 90.229421 119.956638 
L 93.50876 126.913224 
L 96.788099 134.061544 
L 100.067438 141.372817 
L 103.346777 148.817601 
L 106.626116 156.36592 
L 109.905455 163.987379 
L 113.184793 171.651288 
L 116.464132 179.326789 
L 119.743471 186.982975 
L 123.02281 194.589016 
L 126.302149 202.114287 
L 129.581488 209.528485 
L 132.860826 216.801756 
L 136.140165 223.904813 
L 139.419504 230.809054 
L 142.698843 237.48668 
L 145.978182 243.910801 
L 149.257521 250.055549 
L 152.53686 255.896182 
L 155.816198 261.409182 
L 159.095537 266.57235 
L 162.374876 271.364895 
L 165.654215 275.76752 
L 168.933554 279.762497 
L 172.212893 283.33374 
L 175.492231 286.466867 
L 178.77157 289.149264 
L 182.050909 291.37013 
L 185.330248 293.120521 
L 188.609587 294.393389 
L 191.888926 295.183609 
L 195.168264 295.488 
L 198.447603 295.305335 
L 201.726942 294.63635 
L 205.006281 293.483739 
L 208.28562 291.852142 
L 211.564959 289.748131 
L 214.844298 287.180176 
L 218.123636 284.158618 
L 221.402975 280.695624 
L 224.682314 276.805139 
L 227.961653 272.502827 
L 231.240992 267.806012 
L 234.520331 262.733608 
L 237.799669 257.306038 
L 241.079008 251.545158 
L 244.358347 245.474165 
L 247.637686 239.117505 
L 250.917025 232.500773 
L 254.196364 225.650613 
L 257.475702 218.594607 
L 260.755041 211.361169 
L 264.03438 203.979424 
L 267.313719 196.479096 
L 270.593058 188.890387 
L 273.872397 181.243853 
L 277.151736 173.570284 
L 280.431074 165.90058 
L 283.710413 158.265623 
L 286.989752 150.696156 
L 290.269091 143.222659 
L 293.54843 135.875225 
L 296.827769 128.683441 
L 300.107107 121.676263 
L 303.386446 114.881909 
L 306.665785 108.327736 
L 309.945124 102.040136 
L 313.224463 96.044427 
L 316.503802 90.364751 
L 319.78314 85.023978 
L 323.062479 80.043614 
L 326.341818 75.443713 
L 329.621157 71.242797 
L 332.900496 67.457782 
L 336.179835 64.103908 
L 339.459174 61.194681 
L 342.738512 58.741815 
L 346.017851 56.755187 
L 349.29719 55.242796 
L 352.576529 54.210732 
L 355.855868 53.66315 
L 359.135207 53.602257 
L 362.414545 54.028297 
L 365.693884 54.939554 
L 368.973223 56.332359 
L 372.252562 58.201103 
L 375.531901 60.538263 
L 378.81124 63.334427 
L 382.090579 66.578336 
L 385.369917 70.256928 
L 388.649256 74.35539 
L 391.928595 78.85722 
L 395.207934 83.74429 
L 398.487273 88.996921 
" clip-path="url(#pb95d69e6be)" style="fill: none; stroke: #ffd23f; stroke-width: 1.5; stroke-linecap: square"/>
   </g>
   <g id="line2d_21">
    <path d="M 73.832727 174.529903 
L 77.112066 159.217039 
L 80.391405 144.150565 
L 83.670744 129.572905 
L 86.950083 115.718621 
L 90.229421 102.810632 
L 93.50876 91.056633 
L 96.788099 80.64575 
L 100.067438 71.745498 
L 103.346777 64.499086 
L 106.626116 59.023111 
L 109.905455 55.405683 
L 113.184793 53.705009 
L 116.464132 53.948452 
L 119.743471 56.132096 
L 123.02281 60.220806 
L 126.302149 66.148791 
L 129.581488 73.820669 
L 132.860826 83.112996 
L 136.140165 93.876256 
L 139.419504 105.937263 
L 142.698843 119.101951 
L 145.978182 133.158496 
L 149.257521 147.880722 
L 152.53686 163.031743 
L 155.816198 178.367774 
L 159.095537 193.642053 
L 162.374876 208.60881 
L 165.654215 223.027224 
L 168.933554 236.665298 
L 172.212893 249.303591 
L 175.492231 260.738747 
L 178.77157 270.78677 
L 182.050909 279.285984 
L 185.330248 286.099634 
L 188.609587 291.118085 
L 191.888926 294.260589 
L 195.168264 295.476581 
L 198.447603 294.746495 
L 201.726942 292.08208 
L 205.006281 287.526206 
L 208.28562 281.15218 
L 211.564959 273.062561 
L 214.844298 263.387514 
L 218.123636 252.282716 
L 221.402975 239.926846 
L 224.682314 226.518714 
L 227.961653 212.274063 
L 231.240992 197.422094 
L 234.520331 182.201781 
L 237.799669 166.858025 
L 241.079008 151.637713 
L 244.358347 136.785744 
L 247.637686 122.541093 
L 250.917025 109.132961 
L 254.196364 96.777091 
L 257.475702 85.672292 
L 260.755041 75.997246 
L 264.03438 67.907627 
L 267.313719 61.5336 
L 270.593058 56.977726 
L 273.872397 54.313311 
L 277.151736 53.583226 
L 280.431074 54.799218 
L 283.710413 57.941721 
L 286.989752 62.960172 
L 290.269091 69.773822 
L 293.54843 78.273036 
L 296.827769 88.32106 
L 300.107107 99.756216 
L 303.386446 112.394508 
L 306.665785 126.032583 
L 309.945124 140.450997 
L 313.224463 155.417754 
L 316.503802 170.692032 
L 319.78314 186.028063 
L 323.062479 201.179085 
L 326.341818 215.901311 
L 329.621157 229.957855 
L 332.900496 243.122544 
L 336.179835 255.183551 
L 339.459174 265.94681 
L 342.738512 275.239137 
L 346.017851 282.911015 
L 349.29719 288.839001 
L 352.576529 292.92771 
L 355.855868 295.111354 
L 359.135207 295.354798 
L 362.414545 293.654123 
L 365.693884 290.036696 
L 368.973223 284.560721 
L 372.252562 277.314308 
L 375.531901 268.414057 
L 378.81124 258.003174 
L 382.090579 246.249175 
L 385.369917 233.341186 
L 388.649256 219.486901 
L 391.928595 204.909242 
L 395.207934 189.842767 
L 398.487273 174.529903 
" clip-path="url(#pb95d69e6be)" style="fill: none; stroke: #3bceac; stroke-width: 1.5; stroke-linecap: square"/>
   </g>
   <g id="line2d_22">
    <path d="M 73.832727 53.568 
L 77.112066 54.541161 
L 80.391405 57.444986 
L 83.670744 62.232751 
L 86.950083 68.827419 
L 90.229421 77.12288 
L 93.50876 86.985657 
L 96.788099 98.257053 
L 100.067438 110.755707 
L 103.346777 124.280513 
L 106.626116 138.61385 
L 109.905455 153.525089 
L 113.184793 168.774304 
L 116.464132 184.116129 
L 119.743471 199.303708 
L 123.02281 214.092667 
L 126.302149 228.245046 
L 129.581488 241.533128 
L 132.860826 253.743104 
L 136.140165 264.67851 
L 139.419504 274.16339 
L 142.698843 282.045131 
L 145.978182 288.196911 
L 149.257521 292.519747 
L 152.53686 294.944082 
L 155.816198 295.430907 
L 159.095537 293.972391 
L 162.374876 290.591999 
L 165.654215 285.344126 
L 168.933554 278.31321 
L 172.212893 269.612382 
L 175.492231 259.381641 
L 178.77157 247.785604 
L 182.050909 235.010855 
L 185.330248 221.262945 
L 188.609587 206.763083 
L 191.888926 191.744577 
L 195.168264 176.44908 
L 198.447603 161.122704 
L 201.726942 146.012054 
L 205.006281 131.360267 
L 208.28562 117.403095 
L 211.564959 104.365115 
L 214.844298 92.456113 
L 218.123636 81.867709 
L 221.402975 72.770275 
L 224.682314 65.310191 
L 227.961653 59.607493 
L 231.240992 55.753939 
L 234.520331 53.811535 
L 237.799669 53.811535 
L 241.079008 55.753939 
L 244.358347 59.607493 
L 247.637686 65.310191 
L 250.917025 72.770275 
L 254.196364 81.867709 
L 257.475702 92.456113 
L 260.755041 104.365115 
L 264.03438 117.403095 
L 267.313719 131.360267 
L 270.593058 146.012054 
L 273.872397 161.122704 
L 277.151736 176.44908 
L 280.431074 191.744577 
L 283.710413 206.763083 
L 286.989752 221.262945 
L 290.269091 235.010855 
L 293.54843 247.785604 
L 296.827769 259.381641 
L 300.107107 269.612382 
L 303.386446 278.31321 
L 306.665785 285.344126 
L 309.945124 290.591999 
L 313.224463 293.972391 
L 316.503802 295.430907 
L 319.78314 294.944082 
L 323.062479 292.519747 
L 326.341818 288.196911 
L 329.621157 282.045131 
L 332.900496 274.16339 
L 336.179835 264.67851 
L 339.459174 253.743104 
L 342.738512 241.533128 
L 346.017851 228.245046 
L 349.29719 214.092667 
L 352.576529 199.303708 
L 355.855868 184.116129 
L 359.135207 168.774304 
L 362.414545 153.525089 
L 365.693884 138.61385 
L 368.973223 124.280513 
L 372.252562 110.755707 
L 375.531901 98.257053 
L 378.81124 86.985657 
L 382.090579 77.12288 
L 385.369917 68.827419 
L 388.649256 62.232751 
L 391.928595 57.444986 
L 395.207934 54.541161 
L 398.487273 53.568 
" clip-path="url(#pb95d69e6be)" style="fill: none; stroke: #0ead69; stroke-width: 1.5; stroke-linecap: square"/>
   </g>
   <g id="patch_3">
    <path d="M 57.6 307.584 
L 57.6 41.472 
" style="fill: none; stroke: #000000; stroke-width: 0.8; stroke-linejoin: miter; stroke-linecap: square"/>
   </g>
   <g id="patch_4">
    <path d="M 414.72 307.584 
L 414.72 41.472 
" style="fill: none; stroke: #000000; stroke-width: 0.8; stroke-linejoin: miter; stroke-linecap: square"/>
   </g>
   <g id="patch_5">
    <path d="M 57.6 307.584 
L 414.72 307.584 
" style="fill: none; stroke: #000000; stroke-width: 0.8; stroke-linejoin: miter; stroke-linecap: square"/>
   </g>
   <g id="patch_6">
    <path d="M 57.6 41.472 
L 414.72 41.472 
" style="fill: none; stroke: #000000; stroke-width: 0.8; stroke-linejoin: miter; stroke-linecap: square"/>
   </g>
   <g id="text_19">
    <!-- Sine and Cosine -->
    <g transform="translate(187.939687 35.472) scale(0.12 -0.12)">
     <defs>
      <path id="DejaVuSans-53" d="M 3425 4513 
L 3425 3897 
Q 3066 4069 2747 4153 
Q 2428 4238 2131 4238 
Q 1616 4238 1336 4038 
Q 1056 3838 1056 3469 
Q 1056 3159 1242 3001 
Q 1428 2844 1947 2747 
L 2328 2669 
Q 3034 2534 3370 2195 
Q 3706 1856 3706 1288 
Q 3706 609 3251 259 
Q 2797 -91 1919 -91 
Q 1588 -91 1214 -16 
Q 841 59 441 206 
L 441 856 
Q 825 641 1194 531 
Q 1563 422 1919 422 
Q 2459 422 2753 634 
Q 3047 847 3047 1241 
Q 3047 1584 2836 1778 
Q 2625 1972 2144 2069 
L 1759 2144 
Q 1053 2284 737 2584 
Q 422 2884 422 3419 
Q 422 4038 858 4394 
Q 1294 4750 2059 4750 
Q 2388 4750 2728 4690 
Q 3069 4631 3425 4513 
z
" transform="scale(0.015625)"/>
      <path id="DejaVuSans-6e" d="M 3513 2113 
L 3513 0 
L 2938 0 
L 2938 2094 
Q 2938 2591 2744 2837 
Q 2550 3084 2163 3084 
Q 1697 3084 1428 2787 
Q 1159 2491 1159 1978 
L 1159 0 
L 581 0 
L 581 3500 
L 1159 3500 
L 1159 2956 
Q 1366 3272 1645 3428 
Q 1925 3584 2291 3584 
Q 2894 3584 3203 3211 
Q 3513 2838 3513 2113 
z
" transform="scale(0.015625)"/>
      <path id="DejaVuSans-20" transform="scale(0.015625)"/>
      <path id="DejaVuSans-61" d="M 2194 1759 
Q 1497 1759 1228 1600 
Q 959 1441 959 1056 
Q 959 750 1161 570 
Q 1363 391 1709 391 
Q 2188 391 2477 730 
Q 2766 1069 2766 1631 
L 2766 1759 
L 2194 1759 
z
M 3341 1997 
L 3341 0 
L 2766 0 
L 2766 531 
Q 2569 213 2275 61 
Q 1981 -91 1556 -91 
Q 1019 -91 701 211 
Q 384 513 384 1019 
Q 384 1609 779 1909 
Q 1175 2209 1959 2209 
L 2766 2209 
L 2766 2266 
Q 2766 2663 2505 2880 
Q 2244 3097 1772 3097 
Q 1472 3097 1187 3025 
Q 903 2953 641 2809 
L 641 3341 
Q 956 3463 1253 3523 
Q 1550 3584 1831 3584 
Q 2591 3584 2966 3190 
Q 3341 2797 3341 1997 
z
" transform="scale(0.015625)"/>
      <path id="DejaVuSans-43" d="M 4122 4306 
L 4122 3641 
Q 3803 3938 3442 4084 
Q 3081 4231 2675 4231 
Q 1875 4231 1450 3742 
Q 1025 3253 1025 2328 
Q 1025 1406 1450 917 
Q 1875 428 2675 428 
Q 3081 428 3442 575 
Q 3803 722 4122 1019 
L 4122 359 
Q 3791 134 3420 21 
Q 3050 -91 2638 -91 
Q 1578 -91 968 557 
Q 359 1206 359 2328 
Q 359 3453 968 4101 
Q 1578 4750 2638 4750 
Q 3056 4750 3426 4639 
Q 3797 4528 4122 4306 
z
" transform="scale(0.015625)"/>
      <path id="DejaVuSans-6f" d="M 1959 3097 
Q 1497 3097 1228 2736 
Q 959 2375 959 1747 
Q 959 1119 1226 758 
Q 1494 397 1959 397 
Q 2419 397 2687 759 
Q 2956 1122 2956 1747 
Q 2956 2369 2687 2733 
Q 2419 3097 1959 3097 
z
M 1959 3584 
Q 2709 3584 3137 3096 
Q 3566 2609 3566 1747 
Q 3566 888 3137 398 
Q 2709 -91 1959 -91 
Q 1206 -91 779 398 
Q 353 888 353 1747 
Q 353 2609 779 3096 
Q 1206 3584 1959 3584 
z
" transform="scale(0.015625)"/>
      <path id="DejaVuSans-73" d="M 2834 3397 
L 2834 2853 
Q 2591 2978 2328 3040 
Q 2066 3103 1784 3103 
Q 1356 3103 1142 2972 
Q 928 2841 928 2578 
Q 928 2378 1081 2264 
Q 1234 2150 1697 2047 
L 1894 2003 
Q 2506 1872 2764 1633 
Q 3022 1394 3022 966 
Q 3022 478 2636 193 
Q 2250 -91 1575 -91 
Q 1294 -91 989 -36 
Q 684 19 347 128 
L 347 722 
Q 666 556 975 473 
Q 1284 391 1588 391 
Q 1994 391 2212 530 
Q 2431 669 2431 922 
Q 2431 1156 2273 1281 
Q 2116 1406 1581 1522 
L 1381 1569 
Q 847 1681 609 1914 
Q 372 2147 372 2553 
Q 372 3047 722 3315 
Q 1072 3584 1716 3584 
Q 2034 3584 2315 3537 
Q 2597 3491 2834 3397 
z
" transform="scale(0.015625)"/>
     </defs>
     <use xlink:href="#DejaVuSans-53"/>
     <use xlink:href="#DejaVuSans-69" x="63.476562"/>
     <use xlink:href="#DejaVuSans-6e" x="91.259766"/>
     <use xlink:href="#DejaVuSans-65" x="154.638672"/>
     <use xlink:href="#DejaVuSans-20" x="216.162109"/>
     <use xlink:href="#DejaVuSans-61" x="247.949219"/>
     <use xlink:href="#DejaVuSans-6e" x="309.228516"/>
     <use xlink:href="#DejaVuSans-64" x="372.607422"/>
     <use xlink:href="#DejaVuSans-20" x="436.083984"/>
     <use xlink:href="#DejaVuSans-43" x="467.871094"/>
     <use xlink:href="#DejaVuSans-6f" x="537.695312"/>
     <use xlink:href="#DejaVuSans-73" x="598.876953"/>
     <use xlink:href="#DejaVuSans-69" x="650.976562"/>
     <use xlink:href="#DejaVuSans-6e" x="678.759766"/>
     <use xlink:href="#DejaVuSans-65" x="742.138672"/>
    </g>
   </g>
  </g>
 </g>
 <defs>
  <clipPath id="pb95d69e6be">
   <rect x="57.6" y="41.472" width="357.12" height="266.112"/>
  </clipPath>
 </defs>
</svg>
